<?xml version="1.0" standalone="no"?><!DOCTYPE svg PUBLIC "-//W3C//DTD SVG 1.1//EN" "http://www.w3.org/Graphics/SVG/1.1/DTD/svg11.dtd"><svg t="1712332868893" class="icon" viewBox="0 0 1024 1024" version="1.1" xmlns="http://www.w3.org/2000/svg" p-id="4252" xmlns:xlink="http://www.w3.org/1999/xlink" width="200" height="200"><path d="M982.843077 576.590769l-52.893539-162.737231-104.802461-322.638769a17.998769 17.998769 0 0 0-34.264615 0l-104.841847 322.599385H337.92l-104.841846-322.56a17.998769 17.998769 0 0 0-34.264616 0l-104.802461 322.56-52.893539 162.776615a36.036923 36.036923 0 0 0 13.075693 40.290462L512 949.484308l457.728-332.603077a36.036923 36.036923 0 0 0 13.075692-40.290462" fill="#FC6D26" p-id="4253"></path><path d="M512 949.484308l174.040615-535.63077H337.959385z" fill="#E24329" p-id="4254"></path><path d="M512 949.484308l-174.040615-535.63077H94.050462z" fill="#FC6D26" p-id="4255"></path><path d="M94.050462 413.853538L41.156923 576.590769a36.036923 36.036923 0 0 0 13.075692 40.290462L512 949.484308l-417.949538-535.63077z" fill="#FCA326" p-id="4256"></path><path d="M94.050462 413.814154H337.92l-104.841846-322.56a17.998769 17.998769 0 0 0-34.264616 0l-104.802461 322.56z" fill="#E24329" p-id="4257"></path><path d="M512 949.484308l174.040615-535.63077h243.908923z" fill="#FC6D26" p-id="4258"></path><path d="M929.949538 413.853538l52.893539 162.776616a36.036923 36.036923 0 0 1-13.075692 40.290461L512 949.484308l417.949538-535.63077z" fill="#FCA326" p-id="4259"></path><path d="M929.949538 413.814154h-243.908923l104.802462-322.56a17.998769 17.998769 0 0 1 34.264615 0l104.841846 322.56z" fill="#E24329" p-id="4260"></path></svg>